<svg width="12" height="12" viewBox="0 0 12 12" fill="none" xmlns="http://www.w3.org/2000/svg">
<path d="M5.99996 2C8.14496 2 9.93146 3.2145 11.3325 5.577L11.4425 5.7665L11.465 5.8165L11.48 5.858L11.487 5.8855L11.494 5.9265L11.4995 5.9765V6.0315L11.4925 6.087C11.4892 6.10556 11.4848 6.12393 11.4795 6.142L11.46 6.196L11.442 6.2335L11.434 6.2485C10.052 8.6665 8.28396 9.9385 6.15646 9.998L5.99996 10C3.80196 10 1.98146 8.7255 0.565961 6.248C0.522816 6.17247 0.500122 6.08699 0.500122 6C0.500122 5.91301 0.522816 5.82753 0.565961 5.752C1.98146 3.2745 3.80196 2 5.99996 2ZM5.99996 4.5C5.60214 4.5 5.2206 4.65804 4.9393 4.93934C4.658 5.22064 4.49996 5.60218 4.49996 6C4.49996 6.39782 4.658 6.77936 4.9393 7.06066C5.2206 7.34196 5.60214 7.5 5.99996 7.5C6.39779 7.5 6.77932 7.34196 7.06062 7.06066C7.34193 6.77936 7.49996 6.39782 7.49996 6C7.49996 5.60218 7.34193 5.22064 7.06062 4.93934C6.77932 4.65804 6.39779 4.5 5.99996 4.5Z" fill="#727272"/>
</svg>
