<svg width="25" height="24" viewBox="0 0 25 24" fill="none" xmlns="http://www.w3.org/2000/svg">
<path d="M22.21 20.2899L18.5 16.6099C19.9401 14.8143 20.6375 12.5352 20.4488 10.2412C20.2601 7.94721 19.1997 5.81269 17.4855 4.27655C15.7714 2.74041 13.5338 1.91941 11.2329 1.98237C8.93207 2.04534 6.74275 2.98747 5.11517 4.61505C3.48759 6.24263 2.54546 8.43194 2.4825 10.7328C2.41954 13.0337 3.24053 15.2713 4.77667 16.9854C6.31281 18.6996 8.44733 19.76 10.7413 19.9487C13.0353 20.1374 15.3144 19.44 17.11 17.9999L20.79 21.6799C20.883 21.7736 20.9936 21.848 21.1154 21.8988C21.2373 21.9496 21.368 21.9757 21.5 21.9757C21.632 21.9757 21.7627 21.9496 21.8846 21.8988C22.0065 21.848 22.1171 21.7736 22.21 21.6799C22.3903 21.4934 22.491 21.2442 22.491 20.9849C22.491 20.7256 22.3903 20.4764 22.21 20.2899ZM11.5 17.9999C10.1156 17.9999 8.76218 17.5894 7.61103 16.8202C6.45989 16.051 5.56268 14.9578 5.03287 13.6787C4.50306 12.3996 4.36443 10.9921 4.63453 9.63427C4.90463 8.27641 5.57131 7.02912 6.55028 6.05016C7.52925 5.07119 8.77653 4.4045 10.1344 4.13441C11.4923 3.86431 12.8997 4.00293 14.1788 4.53275C15.4579 5.06256 16.5511 5.95977 17.3203 7.11091C18.0895 8.26206 18.5 9.61544 18.5 10.9999C18.5 12.8564 17.7625 14.6369 16.4498 15.9497C15.137 17.2624 13.3565 17.9999 11.5 17.9999Z" fill="white"/>
</svg>
