<svg width="8" height="8" viewBox="0 0 8 8" fill="none" xmlns="http://www.w3.org/2000/svg">
<path d="M7.4965 1.2C7.4965 0.815 7.185 0.5 6.8 0.5H1.2C0.815 0.5 0.5 0.815 0.5 1.2V5.4C0.5 5.785 0.815 6.1 1.2 6.1H6.1L7.5 7.5L7.4965 1.2ZM5.75 4.7H2.25C2.0575 4.7 1.9 4.5425 1.9 4.35C1.9 4.1575 2.0575 4 2.25 4H5.75C5.9425 4 6.1 4.1575 6.1 4.35C6.1 4.5425 5.9425 4.7 5.75 4.7ZM5.75 3.65H2.25C2.0575 3.65 1.9 3.4925 1.9 3.3C1.9 3.1075 2.0575 2.95 2.25 2.95H5.75C5.9425 2.95 6.1 3.1075 6.1 3.3C6.1 3.4925 5.9425 3.65 5.75 3.65ZM5.75 2.6H2.25C2.0575 2.6 1.9 2.4425 1.9 2.25C1.9 2.0575 2.0575 1.9 2.25 1.9H5.75C5.9425 1.9 6.1 2.0575 6.1 2.25C6.1 2.4425 5.9425 2.6 5.75 2.6Z" fill="#5271FF"/>
</svg>
