<svg width="10" height="9" viewBox="0 0 10 9" fill="none" xmlns="http://www.w3.org/2000/svg">
<path d="M1.00149 4.16345C0.996718 4.11258 1.00343 4.06135 1.02119 4.013C1.03895 3.96466 1.06739 3.92026 1.10468 3.88262C1.14198 3.84498 1.18733 3.81493 1.23785 3.79436C1.28837 3.7738 1.34296 3.76317 1.39815 3.76316H2.15861C2.26424 3.76316 2.36553 3.80197 2.44022 3.87107C2.51491 3.94016 2.55686 4.03387 2.55686 4.13158V7.63158C2.55686 7.72929 2.51491 7.823 2.44022 7.89209C2.36553 7.96118 2.26424 8 2.15861 8H1.72731C1.62763 8.00002 1.53157 7.96547 1.45809 7.90316C1.38462 7.84085 1.33907 7.75531 1.33045 7.66345L1.00149 4.16345ZM3.75162 4.01645C3.75162 3.86245 3.85516 3.72466 4.0055 3.65908C4.33386 3.51576 4.89321 3.22784 5.1455 2.8386C5.47067 2.33681 5.532 1.43031 5.54196 1.22271C5.54335 1.1936 5.54256 1.1645 5.54674 1.13576C5.6007 0.775999 6.3512 1.19618 6.63894 1.6405C6.79526 1.88145 6.81517 2.1981 6.79884 2.4455C6.78112 2.71003 6.69729 2.96553 6.61505 3.21937L6.43982 3.76039H8.60172C8.66325 3.76039 8.72395 3.77358 8.77905 3.79892C8.83414 3.82426 8.88214 3.86107 8.91928 3.90645C8.95642 3.95184 8.98168 4.00457 8.99309 4.0605C9.0045 4.11644 9.00175 4.17406 8.98504 4.22884L7.91574 7.73179C7.89213 7.80905 7.84189 7.87706 7.77266 7.92547C7.70343 7.97389 7.619 8.00006 7.53222 8H4.14987C4.04425 8 3.94295 7.96118 3.86826 7.89209C3.79358 7.823 3.75162 7.72929 3.75162 7.63158V4.01645Z" fill="#5271FF" stroke="#5271FF" stroke-width="0.3" stroke-linecap="round" stroke-linejoin="round"/>
</svg>
