<svg width="9" height="9" viewBox="0 0 9 9" fill="none" xmlns="http://www.w3.org/2000/svg">
<path d="M8.9955 0.9C8.9955 0.405 8.595 0 8.1 0H0.9C0.405 0 0 0.405 0 0.9V6.3C0 6.795 0.405 7.2 0.9 7.2H7.2L9 9L8.9955 0.9ZM6.75 5.4H2.25C2.0025 5.4 1.8 5.1975 1.8 4.95C1.8 4.7025 2.0025 4.5 2.25 4.5H6.75C6.9975 4.5 7.2 4.7025 7.2 4.95C7.2 5.1975 6.9975 5.4 6.75 5.4ZM6.75 4.05H2.25C2.0025 4.05 1.8 3.8475 1.8 3.6C1.8 3.3525 2.0025 3.15 2.25 3.15H6.75C6.9975 3.15 7.2 3.3525 7.2 3.6C7.2 3.8475 6.9975 4.05 6.75 4.05ZM6.75 2.7H2.25C2.0025 2.7 1.8 2.4975 1.8 2.25C1.8 2.0025 2.0025 1.8 2.25 1.8H6.75C6.9975 1.8 7.2 2.0025 7.2 2.25C7.2 2.4975 6.9975 2.7 6.75 2.7Z" fill="#727272"/>
</svg>
