<svg width="38" height="39" viewBox="0 0 38 39" fill="none" xmlns="http://www.w3.org/2000/svg">
<path d="M10.2377 19.5C11.5631 17.2892 14.468 15.7762 18.9999 15.7762C23.5319 15.7762 26.4368 17.2892 27.7622 19.5M22.5999 8.1C22.5999 10.0882 20.9882 11.7 18.9999 11.7C17.0117 11.7 15.3999 10.0882 15.3999 8.1C15.3999 6.11177 17.0117 4.5 18.9999 4.5C20.9882 4.5 22.5999 6.11177 22.5999 8.1Z" stroke="#A2A8B1" stroke-width="2" stroke-linecap="round"/>
<path d="M15.1035 30.9492V36.6328H11.0117V30.9492H15.1035ZM11.9199 31.6816V35.8809H14.1855V31.6816H11.9199ZM17.4961 30.0801V33.5078H18.9023V34.2891H17.4961V38.8301H16.5684V30.0801H17.4961ZM26.5684 30.0801V38.8496H25.6406V30.0801H26.5684ZM21.8906 30.7344C23.1895 30.7344 24.1465 31.9258 24.1465 33.8008C24.1465 35.6855 23.1895 36.877 21.8906 36.877C20.5723 36.877 19.625 35.6855 19.625 33.8008C19.625 31.9258 20.5723 30.7344 21.8906 30.7344ZM21.8906 31.5645C21.0801 31.5645 20.5234 32.4238 20.5234 33.8008C20.5234 35.1875 21.0801 36.0469 21.8906 36.0469C22.6914 36.0469 23.248 35.1875 23.248 33.8008C23.248 32.4238 22.6914 31.5645 21.8906 31.5645Z" fill="#BDBDBD"/>
</svg>
