<svg width="38" height="39" viewBox="0 0 38 39" fill="none" xmlns="http://www.w3.org/2000/svg">
<path d="M10 9.41605C10 9.04665 10.188 8.7001 10.5046 8.48603L18.3046 3.21117C18.7209 2.92961 19.2791 2.92961 19.6954 3.21117L27.4954 8.48603C27.812 8.70011 28 9.04665 28 9.41605V19.2882C28 20.2336 27.1941 21 26.2 21H11.8C10.8059 21 10 20.2336 10 19.2882V9.41605Z" stroke="#5271FF" stroke-width="1.7"/>
<path d="M22.0029 36.1934V38.7227H15.958V36.1934H22.0029ZM16.876 36.9062V38.0098H21.1045V36.9062H16.876ZM22.5303 30.7734V31.4863H15.4111V30.7734H18.5264V29.9629H19.4541V30.7734H22.5303ZM18.9854 31.7988C20.8311 31.7988 21.8564 32.2188 21.8564 33.0391C21.8564 33.7861 21.002 34.2012 19.4541 34.2695V34.8652H22.9795V35.5977H15.001V34.8652H18.5264V34.2695C16.9785 34.2012 16.1045 33.7861 16.1143 33.0391C16.1045 32.2188 17.1494 31.7988 18.9854 31.7988ZM18.9854 32.4336C17.7646 32.4434 17.1006 32.6387 17.1006 33.0391C17.1006 33.4297 17.7646 33.6445 18.9854 33.6445C20.2158 33.6445 20.8701 33.4297 20.8701 33.0391C20.8701 32.6387 20.2158 32.4434 18.9854 32.4336Z" fill="#5271FF"/>
</svg>
