<svg width="26" height="26" viewBox="0 0 26 26" fill="none" xmlns="http://www.w3.org/2000/svg">
<path d="M20.7091 18.9856C20.9381 19.2146 21.0667 19.5251 21.0667 19.8489C21.0667 20.1727 20.9381 20.4832 20.7091 20.7122C20.4802 20.9411 20.1697 21.0698 19.8459 21.0698C19.5221 21.0698 19.2115 20.9411 18.9826 20.7122L12.5344 14.262L6.08415 20.7102C5.85519 20.9391 5.54466 21.0677 5.22086 21.0677C4.89707 21.0677 4.58654 20.9391 4.35758 20.7102C4.12863 20.4812 4 20.1707 4 19.8469C4 19.5231 4.12863 19.2126 4.35758 18.9836L10.8078 12.5354L4.35961 6.08516C4.13066 5.8562 4.00203 5.54567 4.00203 5.22188C4.00203 4.89809 4.13066 4.58755 4.35961 4.3586C4.58857 4.12964 4.8991 4.00102 5.2229 4.00102C5.54669 4.00102 5.85722 4.12964 6.08618 4.3586L12.5344 10.8088L18.9846 4.35758C19.2136 4.12863 19.5241 4 19.8479 4C20.1717 4 20.4822 4.12863 20.7112 4.35758C20.9401 4.58654 21.0688 4.89707 21.0688 5.22086C21.0688 5.54466 20.9401 5.85519 20.7112 6.08415L14.2609 12.5354L20.7091 18.9856Z" fill="#181818"/>
</svg>
