<svg width="38" height="37" viewBox="0 0 38 37" fill="none" xmlns="http://www.w3.org/2000/svg">
<path d="M29.4844 5.4305L24.5687 0.51564C24.4052 0.352165 24.2112 0.222487 23.9977 0.134012C23.7841 0.0455376 23.5552 0 23.3241 0C23.0929 0 22.864 0.0455376 22.6505 0.134012C22.4369 0.222487 22.2429 0.352165 22.0795 0.51564L8.51589 14.0799C8.35175 14.2427 8.22162 14.4366 8.13306 14.6502C8.0445 14.8638 7.99927 15.0928 8.00001 15.324V20.24C8.00001 20.7068 8.18543 21.1544 8.51548 21.4845C8.84553 21.8146 9.29318 22 9.75994 22H28.2392C28.4726 22 28.6964 21.9073 28.8615 21.7423C29.0265 21.5772 29.1192 21.3534 29.1192 21.12C29.1192 20.8866 29.0265 20.6628 28.8615 20.4977C28.6964 20.3327 28.4726 20.24 28.2392 20.24H17.1649L29.4844 7.91983C29.6479 7.75639 29.7775 7.56235 29.866 7.34879C29.9545 7.13523 30 6.90633 30 6.67516C30 6.444 29.9545 6.2151 29.866 6.00154C29.7775 5.78798 29.6479 5.59394 29.4844 5.4305ZM19.4396 5.6439L21.2754 7.47982L11.9599 16.7958L10.124 14.9599L19.4396 5.6439ZM9.75994 20.24V17.084L12.9157 20.24H9.75994ZM15.0397 19.8759L13.205 18.04L22.5195 8.72394L24.3553 10.5599L15.0397 19.8759ZM25.5993 9.31575L20.6847 4.39979L23.3246 1.75976L28.2392 6.67571L25.5993 9.31575Z" fill="#A2A8B1"/>
<path d="M10.8018 29.3203C10.8018 30.7461 12.3252 32.0938 14.0049 32.3965L13.5752 33.168C12.1787 32.8652 10.8896 31.9473 10.3232 30.7168C9.74707 31.9375 8.46289 32.8555 7.06152 33.168L6.65137 32.3965C8.31152 32.084 9.8252 30.7461 9.8252 29.3203V28.6562H10.8018V29.3203ZM14.3662 34.9062V35.6777H6.3584V34.9062H14.3662ZM22.2959 28.0801V36.8496H21.3779V32.0742H19.6396V31.3125H21.3779V28.0801H22.2959ZM19.4932 28.8613V29.6133H16.3389V31.3125H19.1221V32.0547H16.3389V34.0078C17.8037 34.0029 18.8193 33.9688 19.9814 33.7637L20.0791 34.5156C18.8096 34.7207 17.7061 34.7695 16.085 34.7793H15.4014V28.8613H19.4932ZM30.8896 28.0801V36.8496H29.9619V28.0801H30.8896ZM28.3896 28.8906V29.6621H25.1377V33.9102C26.7979 33.9053 27.8574 33.8613 29.0928 33.6367L29.1904 34.4082C27.8818 34.6426 26.7393 34.7012 24.9229 34.7012H24.2002V28.8906H28.3896Z" fill="#BDBDBD"/>
</svg>
